<svg width="24" height="24" viewBox="0 0 24 24" fill="none" xmlns="http://www.w3.org/2000/svg">
<path d="M8 11.9969C8.00406 11.8528 8.03247 11.7211 8.08524 11.6017C8.138 11.4823 8.21918 11.367 8.32877 11.2558L14.4292 5.26555C14.6038 5.08852 14.8189 5 15.0746 5C15.2451 5 15.3993 5.04117 15.5373 5.12351C15.6794 5.20585 15.791 5.31701 15.8721 5.45699C15.9574 5.59697 16 5.75342 16 5.92633C16 6.18159 15.9046 6.40597 15.7139 6.59947L10.1979 11.9907L15.7139 17.3882C15.9046 17.5858 16 17.8102 16 18.0613C16 18.2383 15.9574 18.3969 15.8721 18.5368C15.791 18.6768 15.6794 18.788 15.5373 18.8703C15.3993 18.9568 15.2451 19 15.0746 19C14.8189 19 14.6038 18.9094 14.4292 18.7283L8.32877 12.738C8.21512 12.6268 8.13191 12.5115 8.07915 12.3921C8.02638 12.2686 8 12.1369 8 11.9969Z" fill="white"/>
</svg>
