<svg width="24" height="24" viewBox="0 0 24 24" fill="none" xmlns="http://www.w3.org/2000/svg">
<path fill-rule="evenodd" clip-rule="evenodd" d="M3.99663 3.99666H14.0008C14.5533 3.99666 15.0012 4.44456 15.0012 4.99707V20.0033H3.99663C3.44412 20.0033 2.99622 19.5554 2.99622 19.0029V4.99707C2.99622 4.44456 3.44412 3.99666 3.99663 3.99666Z" stroke="white" stroke-width="1.5" stroke-linecap="round" stroke-linejoin="round"/>
<path fill-rule="evenodd" clip-rule="evenodd" d="M15.0012 7.99832H20.0033C20.5558 7.99832 21.0037 8.44622 21.0037 8.99874V19.0029C21.0037 19.5554 20.5558 20.0033 20.0033 20.0033H15.0012V7.99832Z" stroke="white" stroke-width="1.5" stroke-linecap="round" stroke-linejoin="round"/>
<path d="M6.99789 7.87328C6.92882 7.87328 6.87284 7.92927 6.87284 7.99833C6.87284 8.0674 6.92882 8.12338 6.99789 8.12338C7.06695 8.12338 7.12294 8.0674 7.12294 7.99833C7.12294 7.92927 7.06695 7.87328 6.99789 7.87328" stroke="white" stroke-width="1.5" stroke-linecap="round" stroke-linejoin="round"/>
<path d="M10.9996 7.87328C10.9305 7.87328 10.8745 7.92927 10.8745 7.99833C10.8745 8.0674 10.9305 8.12338 10.9996 8.12338C11.0687 8.12338 11.1247 8.0674 11.1247 7.99833C11.1247 7.92927 11.0687 7.87328 10.9996 7.87328" stroke="white" stroke-width="1.5" stroke-linecap="round" stroke-linejoin="round"/>
<path d="M6.99789 11.8749C6.92882 11.8749 6.87284 11.9309 6.87284 12C6.87284 12.0691 6.92882 12.125 6.99789 12.125C7.06695 12.125 7.12294 12.0691 7.12294 12C7.12294 11.9309 7.06695 11.8749 6.99789 11.8749" stroke="white" stroke-width="1.5" stroke-linecap="round" stroke-linejoin="round"/>
<path d="M10.9996 11.8749C10.9305 11.8749 10.8745 11.9309 10.8745 12C10.8745 12.0691 10.9305 12.125 10.9996 12.125C11.0687 12.125 11.1247 12.0691 11.1247 12C11.1247 11.9309 11.0687 11.8749 10.9996 11.8749" stroke="white" stroke-width="1.5" stroke-linecap="round" stroke-linejoin="round"/>
<path d="M6.99789 15.8766C6.92882 15.8766 6.87284 15.9326 6.87284 16.0017C6.87284 16.0707 6.92882 16.1267 6.99789 16.1267C7.06695 16.1267 7.12294 16.0707 7.12294 16.0017C7.12294 15.9326 7.06695 15.8766 6.99789 15.8766" stroke="white" stroke-width="1.5" stroke-linecap="round" stroke-linejoin="round"/>
<path d="M10.9996 15.8766C10.9305 15.8766 10.8745 15.9326 10.8745 16.0017C10.8745 16.0707 10.9305 16.1267 10.9996 16.1267C11.0687 16.1267 11.1247 16.0707 11.1247 16.0017C11.1247 15.9326 11.0687 15.8766 10.9996 15.8766" stroke="white" stroke-width="1.5" stroke-linecap="round" stroke-linejoin="round"/>
<path d="M18.0025 11.8749C17.9335 11.8749 17.8775 11.9309 17.8775 12C17.8775 12.0691 17.9335 12.125 18.0025 12.125C18.0716 12.125 18.1276 12.0691 18.1276 12C18.1276 11.9309 18.0716 11.8749 18.0025 11.8749" stroke="white" stroke-width="1.5" stroke-linecap="round" stroke-linejoin="round"/>
<path d="M18.0025 15.8766C17.9335 15.8766 17.8775 15.9326 17.8775 16.0017C17.8775 16.0707 17.9335 16.1267 18.0025 16.1267C18.0716 16.1267 18.1276 16.0707 18.1276 16.0017C18.1276 15.9326 18.0716 15.8766 18.0025 15.8766" stroke="white" stroke-width="1.5" stroke-linecap="round" stroke-linejoin="round"/>
</svg>
