<svg width="18" height="18" viewBox="0 0 18 18" fill="none" xmlns="http://www.w3.org/2000/svg">
<g clip-path="url(#clip0_1_1732)">
<path d="M8.98706 -4.12158e-06C5.10961 0.00695682 1.96851 3.15235 1.96851 7.03146V16.8281C1.96851 17.3501 2.59967 17.6116 2.96881 17.2425L4.31234 15.8598L6.24182 17.8284C6.47069 18.0572 6.84169 18.0572 7.07052 17.8284L8.99997 15.8598L10.9294 17.8284C11.1583 18.0572 11.5293 18.0572 11.7581 17.8284L13.6876 15.8598L15.0312 17.2424C15.4003 17.6115 16.0315 17.3501 16.0315 16.8281V7.09168C16.0314 3.21721 12.8615 -0.0069299 8.98706 -4.12158e-06ZM6.07019 9.37525C5.10086 9.37525 4.31234 8.58674 4.31234 7.61741C4.31234 6.64808 5.10089 5.85956 6.07019 5.85956C7.03948 5.85956 7.82803 6.64811 7.82803 7.61741C7.82803 8.5867 7.03951 9.37525 6.07019 9.37525ZM11.9297 9.37525C10.9604 9.37525 10.1719 8.58674 10.1719 7.61741C10.1719 6.64808 10.9605 5.85956 11.9297 5.85956C12.899 5.85956 13.6876 6.64811 13.6876 7.61741C13.6876 8.5867 12.8991 9.37525 11.9297 9.37525Z" fill="#AAAAAA"/>
</g>
<defs>
<clipPath id="clip0_1_1732">
<rect width="18" height="18" fill="white"/>
</clipPath>
</defs>
</svg>
