<svg width="22" height="22" viewBox="0 0 22 22" fill="none" xmlns="http://www.w3.org/2000/svg">
<path fill-rule="evenodd" clip-rule="evenodd" d="M11.4262 0.25C5.77978 0.25 1.20248 4.8273 1.20248 10.4737C1.20248 11.8357 1.46921 13.1372 1.95399 14.3276C2.10511 14.6987 2.12681 15.0707 2.02053 15.3827L0.845224 18.8339C0.376962 20.2089 1.69094 21.5229 3.06595 21.0546L6.51711 19.8793C6.8292 19.773 7.20117 19.7947 7.57225 19.9459C8.76261 20.4306 10.0642 20.6974 11.4262 20.6974C17.0726 20.6974 21.6499 16.1201 21.6499 10.4737C21.6499 4.8273 17.0726 0.25 11.4262 0.25ZM2.70248 10.4737C2.70248 5.65573 6.60821 1.75 11.4262 1.75C16.2441 1.75 20.1499 5.65573 20.1499 10.4737C20.1499 15.2916 16.2441 19.1974 11.4262 19.1974C10.2614 19.1974 9.1518 18.9695 8.138 18.5566C7.50093 18.2972 6.75189 18.2148 6.03355 18.4594L2.58239 19.6347C2.38596 19.7016 2.19825 19.5139 2.26514 19.3175L3.44045 15.8663C3.68508 15.148 3.60265 14.3989 3.3432 13.7618C2.93034 12.7481 2.70248 11.6384 2.70248 10.4737ZM8.40002 10.5C8.40002 11.0523 7.95231 11.5 7.40002 11.5C6.84774 11.5 6.40002 11.0523 6.40002 10.5C6.40002 9.94771 6.84774 9.5 7.40002 9.5C7.95231 9.5 8.40002 9.94771 8.40002 10.5ZM12.4 10.5C12.4 11.0523 11.9523 11.5 11.4 11.5C10.8477 11.5 10.4 11.0523 10.4 10.5C10.4 9.94771 10.8477 9.5 11.4 9.5C11.9523 9.5 12.4 9.94771 12.4 10.5ZM15.4 11.5C15.9523 11.5 16.4 11.0523 16.4 10.5C16.4 9.94771 15.9523 9.5 15.4 9.5C14.8477 9.5 14.4 9.94771 14.4 10.5C14.4 11.0523 14.8477 11.5 15.4 11.5Z" fill="#AAAAAA"/>
</svg>
