<svg width="18" height="18" viewBox="0 0 18 18" fill="none" xmlns="http://www.w3.org/2000/svg">
<path d="M15.0453 4.84615C15.6188 4.84615 16.0838 4.38121 16.0838 3.80769C16.0838 3.23416 15.6188 2.76923 15.0453 2.76923C14.4718 2.76923 14.0068 3.23416 14.0068 3.80769C14.0068 4.38121 14.4718 4.84615 15.0453 4.84615Z" fill="#AAAAAA"/>
<path d="M12.276 2.76923C12.8495 2.76923 13.3145 2.30429 13.3145 1.73077C13.3145 1.15724 12.8495 0.692307 12.276 0.692307C11.7025 0.692307 11.2375 1.15724 11.2375 1.73077C11.2375 2.30429 11.7025 2.76923 12.276 2.76923Z" fill="#AAAAAA"/>
<path d="M9.50672 2.07692C10.0802 2.07692 10.5452 1.61199 10.5452 1.03846C10.5452 0.464935 10.0802 0 9.50672 0C8.9332 0 8.46826 0.464935 8.46826 1.03846C8.46826 1.61199 8.9332 2.07692 9.50672 2.07692Z" fill="#AAAAAA"/>
<path d="M6.73756 3.46154C7.31108 3.46154 7.77602 2.9966 7.77602 2.42307C7.77602 1.84955 7.31108 1.38461 6.73756 1.38461C6.16403 1.38461 5.6991 1.84955 5.6991 2.42307C5.6991 2.9966 6.16403 3.46154 6.73756 3.46154Z" fill="#AAAAAA"/>
<path d="M14.0068 3.8077V8.3077C14.0068 8.49878 13.8517 8.65385 13.6606 8.65385C13.4696 8.65385 13.3145 8.49878 13.3145 8.3077V1.73078H11.2375V7.61539C11.2375 7.80647 11.0825 7.96154 10.8914 7.96154C10.7003 7.96154 10.5452 7.80647 10.5452 7.61539V1.03847H8.46832V7.61539C8.46832 7.80647 8.31324 7.96154 8.12217 7.96154C7.93109 7.96154 7.77601 7.80647 7.77601 7.61539V2.42308H5.69909V11.0769L4.29717 9.15854C3.88178 8.51816 3.07109 8.30354 2.47709 8.67047C1.88517 9.0457 1.7384 9.86401 2.14824 10.5023C2.14824 10.5023 4.40932 13.9244 5.37301 15.3893C6.3367 16.8542 7.89786 18 10.8173 18C15.651 18 16.0837 14.2671 16.0837 13.1539C16.0837 12.0406 16.0837 3.8077 16.0837 3.8077H14.0068Z" fill="#AAAAAA"/>
</svg>
