<svg width="18" height="18" viewBox="0 0 18 18" fill="none" xmlns="http://www.w3.org/2000/svg">
<path d="M8.96484 2.94118H9.18451C10.0637 2.94118 10.7791 3.6565 10.7791 4.53571C10.7791 5.41495 10.0638 6.13027 9.18451 6.13027H8.96484V7.74418H10.9529C11.2439 7.74418 11.4798 7.98008 11.4798 8.27106V9.00474C11.4798 9.30292 11.7224 9.54552 12.0206 9.54552C12.3188 9.54552 12.5614 9.30292 12.5614 9.00474V8.27106C12.5614 7.98008 12.7973 7.74418 13.0883 7.74418H15.32C15.4567 6.38022 15.195 4.97403 14.551 3.64086C13.9344 2.36418 12.8798 1.3312 11.5814 0.732212C10.7218 0.335653 9.83945 0.099298 8.96484 0.0197754V2.94118Z" fill="#AAAAAA"/>
<path d="M2.94538 7.74418V7.51268C2.94538 6.63343 3.6607 5.91815 4.53994 5.91815C5.41919 5.91815 6.13447 6.63343 6.13447 7.51268V7.74418H7.91161V5.60339C7.91161 5.31242 8.14751 5.07652 8.43849 5.07652H9.18503C9.4832 5.07652 9.72585 4.83391 9.72585 4.53571C9.72585 4.23753 9.48324 3.99492 9.18503 3.99492H8.43849C8.14751 3.99492 7.91161 3.75902 7.91161 3.46805V0C6.71698 0.0659293 5.56078 0.432387 4.52389 1.09593C2.48827 2.39857 1.27295 4.61737 1.27295 7.03118C1.27295 7.27091 1.2851 7.50867 1.30864 7.74418H2.94538Z" fill="#AAAAAA"/>
<path d="M7.91213 13.1553H7.70535C6.8261 13.1553 6.11075 12.4399 6.11075 11.5607C6.11075 10.6815 6.82607 9.96614 7.70535 9.96614H7.91213V8.79796H5.60812C5.31714 8.79796 5.08124 8.56206 5.08124 8.27109V7.51271C5.08124 7.21453 4.83864 6.97192 4.54046 6.97192C4.24225 6.97192 3.99964 7.21453 3.99964 7.51271V8.27109C3.99964 8.56206 3.76375 8.79796 3.47277 8.79796H1.49707C1.59465 9.17495 1.72356 9.54426 1.8845 9.9039C2.24414 10.7076 2.74355 11.4267 3.37066 12.0445V16.0667C3.37066 16.3197 3.55043 16.537 3.79894 16.5843L7.91213 17.3678V13.1553Z" fill="#AAAAAA"/>
<path d="M15.6142 8.79785H13.6162V9.00467C13.6162 9.88391 12.9009 10.5992 12.0217 10.5992C11.1424 10.5992 10.4271 9.88391 10.4271 9.00467V8.79785H8.96593V10.4929C8.96593 10.7839 8.73003 11.0198 8.43906 11.0198H7.7054C7.40719 11.0198 7.16455 11.2624 7.16455 11.5606C7.16455 11.8588 7.40716 12.1014 7.7054 12.1014H8.43906C8.73003 12.1014 8.96593 12.3373 8.96593 12.6283V17.5685L11.1746 17.9892C11.4871 18.0572 11.8083 17.7923 11.8 17.4716V16.1527H13.3329C14.0517 16.1527 14.66 15.6383 14.7795 14.9296L15.2052 12.4053H15.4327C15.8978 12.4053 16.3156 12.1655 16.5502 11.7638C16.7849 11.3622 16.7885 10.8805 16.5601 10.4753L15.6142 8.79785Z" fill="#AAAAAA"/>
</svg>
